<?xml version="1.0" standalone="no"?><!DOCTYPE svg PUBLIC "-//W3C//DTD SVG 1.1//EN" "http://www.w3.org/Graphics/SVG/1.1/DTD/svg11.dtd"><svg t="1701746363856" class="icon" viewBox="0 0 1024 1024" version="1.1" xmlns="http://www.w3.org/2000/svg" p-id="14474" width="28" height="28" xmlns:xlink="http://www.w3.org/1999/xlink"><path d="M512 1024C229.2224 1024 0 794.7776 0 512 0 229.2224 229.2224 0 512 0 794.7776 0 1024 229.2224 1024 512 1024 794.7776 794.7776 1024 512 1024ZM512 51.2C257.4848 51.2 51.2 257.4848 51.2 512 51.2 766.5152 257.4848 972.8 512 972.8 766.5152 972.8 972.8 766.5152 972.8 512 972.8 257.4848 766.5152 51.2 512 51.2ZM512 921.6C285.7984 921.6 102.4 738.2016 102.4 512 102.4 285.7984 285.7984 102.4 512 102.4 738.2016 102.4 921.6 285.7984 921.6 512 921.6 738.2016 738.2016 921.6 512 921.6ZM204.544 503.0912 464.1792 557.3632 520.0384 818.5344 716.5952 306.4832 204.544 503.0912Z" fill="#d81e06" p-id="14475"></path></svg>